<svg xmlns="http://www.w3.org/2000/svg" xmlns:xlink="http://www.w3.org/1999/xlink" width="200" zoomAndPan="magnify" viewBox="0 0 150 30.000001" height="40" preserveAspectRatio="xMidYMid meet" version="1.0"><defs><clipPath id="id1"><path d="M 2.417969 5 L 147.578125 5 L 147.578125 26 L 2.417969 26 Z M 2.417969 5 " clip-rule="nonzero"/></clipPath></defs><g clip-path="url(#id1)"><path stroke-linecap="butt" transform="matrix(0.725806, 0, 0, 0.725806, 2.419352, 4.354841)" fill="none" stroke-linejoin="miter" d="M 8.092538 25.285241 C 6.677087 25.285241 5.428476 24.999998 4.352087 24.434893 C 3.28108 23.864407 2.446878 23.06788 1.865628 22.039928 C 1.278996 21.011977 0.988371 19.822567 0.988371 18.460935 L 0.988371 11.722741 C 0.988371 10.361109 1.278996 9.177081 1.865628 8.154511 C 2.446878 7.137324 3.28108 6.35156 4.352087 5.791838 C 5.428476 5.237497 6.677087 4.957636 8.092538 4.957636 C 9.50799 4.957636 10.761983 5.237497 11.843753 5.791838 C 12.930906 6.35156 13.77049 7.137324 14.35174 8.154511 C 14.938372 9.177081 15.228997 10.361109 15.228997 11.722741 L 15.228997 18.460935 C 15.228997 19.822567 14.93299 21.011977 14.340976 22.039928 C 13.74358 23.06788 12.909378 23.864407 11.83299 24.434893 C 10.756601 24.999998 9.50799 25.285241 8.092538 25.285241 Z M 8.092538 20.726734 C 8.641496 20.726734 9.077434 20.538366 9.411115 20.161629 C 9.744795 19.784893 9.911635 19.284373 9.911635 18.654685 L 9.911635 11.577428 C 9.911635 10.953122 9.744795 10.457984 9.411115 10.075866 C 9.077434 9.699129 8.641496 9.510761 8.092538 9.510761 C 7.565108 9.510761 7.139934 9.699129 6.806253 10.075866 C 6.472573 10.457984 6.305733 10.953122 6.305733 11.577428 L 6.305733 18.654685 C 6.305733 19.284373 6.472573 19.784893 6.806253 20.161629 C 7.139934 20.538366 7.565108 20.726734 8.092538 20.726734 Z M 23.576392 25.226039 C 22.177087 25.226039 20.955385 24.983852 19.905906 24.494095 C 18.856427 24.004338 18.049135 23.320831 17.473267 22.443574 C 16.897399 21.560935 16.606774 20.549129 16.606774 19.392011 L 16.606774 18.746178 C 16.606774 18.611629 16.644448 18.509373 16.719795 18.434025 C 16.795142 18.353296 16.902781 18.315623 17.03733 18.315623 L 21.423615 18.315623 C 21.552781 18.315623 21.655038 18.353296 21.730385 18.434025 C 21.805733 18.509373 21.843406 18.611629 21.843406 18.746178 L 21.843406 19.13906 C 21.843406 19.55347 22.02101 19.91406 22.370837 20.215449 C 22.720663 20.516838 23.188892 20.667532 23.775524 20.667532 C 24.243754 20.667532 24.59358 20.549129 24.819622 20.312324 C 25.045663 20.0809 25.158684 19.811803 25.158684 19.505032 C 25.158684 19.149824 24.997226 18.853817 24.685073 18.622393 C 24.378302 18.380206 23.79167 18.062671 22.925177 17.664407 L 22.24167 17.330727 C 21.186809 16.81406 20.271879 16.308157 19.496878 15.802254 C 18.721878 15.29097 18.049135 14.612845 17.484031 13.773261 C 16.918927 12.93906 16.633684 11.932636 16.633684 10.759372 C 16.633684 9.607636 16.924309 8.595831 17.500177 7.718574 C 18.076045 6.841317 18.867191 6.163192 19.873615 5.684199 C 20.890802 5.199824 22.04792 4.957636 23.344969 4.957636 C 24.685073 4.957636 25.885247 5.210588 26.940108 5.721872 C 28.000351 6.227775 28.82917 6.948956 29.421184 7.87465 C 30.013198 8.800345 30.314587 9.855206 30.314587 11.044616 L 30.314587 11.496699 C 30.314587 11.625866 30.271531 11.733504 30.196184 11.814234 C 30.120837 11.884199 30.01858 11.921872 29.884031 11.921872 L 25.497747 11.921872 C 25.36858 11.921872 25.260941 11.884199 25.185594 11.814234 C 25.110247 11.733504 25.072573 11.625866 25.072573 11.496699 L 25.072573 11.098435 C 25.072573 10.684025 24.905733 10.318053 24.577434 9.995136 C 24.249135 9.67222 23.813198 9.510761 23.26424 9.510761 C 22.84983 9.510761 22.510767 9.623782 22.252434 9.844442 C 21.999483 10.05972 21.875698 10.355727 21.875698 10.732463 C 21.875698 11.146872 22.085594 11.523609 22.510767 11.851907 C 22.930559 12.180206 23.770142 12.637671 25.018754 13.224303 C 25.207122 13.337324 25.492365 13.488018 25.869101 13.676386 C 26.870142 14.219963 27.672052 14.70972 28.27483 15.134893 C 28.877608 15.560067 29.388892 16.119789 29.803302 16.808678 C 30.217712 17.497567 30.422226 18.33715 30.422226 19.338192 C 30.422226 21.151907 29.792538 22.583505 28.538545 23.643748 C 27.284552 24.698609 25.626913 25.226039 23.576392 25.226039 Z M 42.929865 5.468921 C 43.02674 5.280553 43.19358 5.183678 43.44115 5.183678 L 47.854344 5.183678 C 47.988893 5.183678 48.09115 5.221352 48.166497 5.302081 C 48.247226 5.377428 48.2849 5.474303 48.2849 5.60347 L 48.2849 24.580206 C 48.2849 24.709373 48.247226 24.81163 48.166497 24.886977 C 48.09115 24.962324 47.988893 24.999998 47.854344 24.999998 L 43.381948 24.999998 C 43.2474 24.999998 43.145143 24.962324 43.075177 24.886977 C 42.99983 24.81163 42.962156 24.709373 42.962156 24.580206 L 42.962156 13.708678 C 42.962156 13.627949 42.935247 13.579511 42.886809 13.563366 C 42.838372 13.541838 42.800698 13.574129 42.763025 13.649477 L 40.949309 16.652602 C 40.836288 16.84097 40.664066 16.932463 40.438025 16.932463 L 39.700698 16.932463 C 39.474656 16.932463 39.307816 16.84097 39.194795 16.652602 L 37.386462 13.617185 C 37.343406 13.541838 37.300351 13.514928 37.251913 13.531074 C 37.208858 13.552602 37.181948 13.601039 37.181948 13.676386 L 37.181948 24.580206 C 37.181948 24.709373 37.144274 24.81163 37.068927 24.886977 C 36.99358 24.962324 36.891323 24.999998 36.756774 24.999998 L 32.284379 24.999998 C 32.155212 24.999998 32.052955 24.962324 31.972226 24.886977 C 31.896879 24.81163 31.859205 24.709373 31.859205 24.580206 L 31.859205 5.60347 C 31.859205 5.474303 31.896879 5.377428 31.972226 5.302081 C 32.052955 5.221352 32.155212 5.183678 32.284379 5.183678 L 36.697573 5.183678 C 36.923615 5.183678 37.095837 5.280553 37.208858 5.468921 L 39.980559 10.167359 C 40.023615 10.221178 40.06667 10.248088 40.115108 10.248088 C 40.158163 10.248088 40.190455 10.221178 40.211983 10.167359 Z M 61.153129 24.999998 C 60.889414 24.999998 60.727955 24.876213 60.668754 24.634025 L 60.195143 22.448956 C 60.152087 22.357463 60.092886 22.309025 60.022921 22.309025 L 55.776566 22.309025 C 55.701219 22.309025 55.642018 22.357463 55.604344 22.448956 L 55.146879 24.634025 C 55.093059 24.876213 54.936983 24.999998 54.673268 24.999998 L 50.02865 24.999998 C 49.872573 24.999998 49.764934 24.956942 49.700351 24.876213 C 49.635768 24.790102 49.625004 24.666317 49.662677 24.515623 L 54.700177 5.54965 C 54.753997 5.307463 54.904691 5.183678 55.146879 5.183678 L 60.754865 5.183678 C 61.002434 5.183678 61.153129 5.307463 61.21233 5.54965 L 66.222921 24.515623 C 66.239066 24.558678 66.24983 24.607116 66.24983 24.660935 C 66.24983 24.886977 66.115282 24.999998 65.856948 24.999998 Z M 56.508511 18.094963 C 56.508511 18.186456 56.567712 18.234893 56.680733 18.234893 L 59.086462 18.234893 C 59.215629 18.234893 59.27483 18.164928 59.253302 18.035761 L 57.983164 12.142532 C 57.961636 12.072567 57.923962 12.034893 57.864761 12.034893 C 57.810941 12.034893 57.773268 12.072567 57.75174 12.142532 L 56.508511 18.035761 Z M 77.342018 5.60347 C 77.342018 5.474303 77.37431 5.377428 77.449657 5.302081 C 77.530386 5.221352 77.632643 5.183678 77.76181 5.183678 L 82.207296 5.183678 C 82.336462 5.183678 82.444101 5.221352 82.514067 5.302081 C 82.594796 5.377428 82.632469 5.474303 82.632469 5.60347 L 82.632469 24.580206 C 82.632469 24.709373 82.594796 24.81163 82.514067 24.886977 C 82.444101 24.962324 82.336462 24.999998 82.207296 24.999998 L 77.54115 24.999998 C 77.29358 24.999998 77.132122 24.897741 77.056775 24.687845 L 73.122573 15.463192 C 73.106428 15.382463 73.063372 15.344789 73.004171 15.344789 C 72.950351 15.344789 72.923441 15.393227 72.923441 15.490102 L 72.977261 24.580206 C 72.977261 24.709373 72.939587 24.81163 72.858858 24.886977 C 72.788893 24.962324 72.686636 24.999998 72.557469 24.999998 L 68.111983 24.999998 C 67.977434 24.999998 67.875178 24.962324 67.794448 24.886977 C 67.719101 24.81163 67.681428 24.709373 67.681428 24.580206 L 67.681428 5.60347 C 67.681428 5.474303 67.719101 5.377428 67.794448 5.302081 C 67.875178 5.221352 67.977434 5.183678 68.111983 5.183678 L 72.751219 5.183678 C 72.998789 5.183678 73.160247 5.285935 73.235594 5.495831 L 77.164414 14.720484 C 77.185941 14.801213 77.223615 14.833504 77.277435 14.828123 C 77.336636 14.811977 77.368928 14.758157 77.368928 14.666664 Z M 84.46233 24.999998 C 84.327782 24.999998 84.225525 24.962324 84.15556 24.886977 C 84.080212 24.81163 84.042539 24.709373 84.042539 24.580206 L 84.042539 20.581421 C 84.042539 20.414581 84.096358 20.242359 84.209379 20.070136 L 91.028303 9.941317 C 91.071358 9.882116 91.082122 9.83906 91.055212 9.801386 C 91.039067 9.758331 90.990629 9.736803 90.920664 9.736803 L 84.46233 9.736803 C 84.327782 9.736803 84.225525 9.704511 84.15556 9.629164 C 84.080212 9.548435 84.042539 9.446178 84.042539 9.317011 L 84.042539 5.60347 C 84.042539 5.474303 84.080212 5.377428 84.15556 5.302081 C 84.225525 5.221352 84.327782 5.183678 84.46233 5.183678 L 96.496358 5.183678 C 96.630907 5.183678 96.733164 5.221352 96.808511 5.302081 C 96.883858 5.377428 96.91615 5.474303 96.91615 5.60347 L 96.91615 9.575345 C 96.91615 9.742185 96.862331 9.914407 96.754692 10.075866 L 89.876567 20.242359 C 89.833511 20.30156 89.822747 20.349998 89.838893 20.387671 C 89.865803 20.425345 89.91424 20.446873 89.984205 20.446873 L 96.496358 20.446873 C 96.630907 20.446873 96.733164 20.484546 96.808511 20.554511 C 96.883858 20.629859 96.91615 20.732116 96.91615 20.866664 L 96.91615 24.580206 C 96.91615 24.709373 96.883858 24.81163 96.808511 24.886977 C 96.733164 24.962324 96.630907 24.999998 96.496358 24.999998 Z M 98.842886 24.999998 C 98.708337 24.999998 98.600699 24.962324 98.525351 24.886977 C 98.450004 24.81163 98.412331 24.709373 98.412331 24.580206 L 98.412331 5.60347 C 98.412331 5.474303 98.450004 5.377428 98.525351 5.302081 C 98.600699 5.221352 98.708337 5.183678 98.842886 5.183678 L 103.315282 5.183678 C 103.444449 5.183678 103.546706 5.221352 103.616671 5.302081 C 103.6974 5.377428 103.735074 5.474303 103.735074 5.60347 L 103.735074 24.580206 C 103.735074 24.709373 103.6974 24.81163 103.616671 24.886977 C 103.546706 24.962324 103.444449 24.999998 103.315282 24.999998 Z M 110.586289 24.946178 C 110.45174 24.946178 110.349483 24.908505 110.274136 24.833157 C 110.198789 24.75781 110.161115 24.650171 110.161115 24.515623 L 110.161115 18.148782 C 110.161115 18.035761 110.155733 17.960414 110.134206 17.922741 L 105.263546 5.662671 C 105.242018 5.60347 105.236636 5.538886 105.236636 5.468921 C 105.236636 5.280553 105.355039 5.183678 105.602608 5.183678 L 110.381775 5.183678 C 110.500178 5.183678 110.602435 5.21597 110.693928 5.280553 C 110.790803 5.345136 110.850004 5.436629 110.86615 5.54965 L 112.733685 11.722741 C 112.77674 11.798088 112.819796 11.835761 112.862851 11.835761 C 112.911289 11.835761 112.943581 11.798088 112.959726 11.722741 L 114.800352 5.54965 C 114.821879 5.436629 114.881081 5.345136 114.972574 5.280553 C 115.069449 5.21597 115.171706 5.183678 115.284727 5.183678 L 120.096185 5.183678 C 120.246879 5.183678 120.354518 5.226734 120.419102 5.318227 C 120.489067 5.398956 120.494449 5.511977 120.440629 5.662671 L 115.510768 17.922741 C 115.494622 17.960414 115.483858 18.035761 115.483858 18.148782 L 115.483858 24.515623 C 115.483858 24.650171 115.446185 24.75781 115.365456 24.833157 C 115.29549 24.908505 115.187852 24.946178 115.058685 24.946178 Z M 133.088199 24.999998 C 132.819102 24.999998 132.657643 24.876213 132.603824 24.634025 L 132.124831 22.448956 C 132.081775 22.357463 132.027956 22.309025 131.952609 22.309025 L 127.706254 22.309025 C 127.630907 22.309025 127.571706 22.357463 127.534032 22.448956 L 127.081949 24.634025 C 127.022747 24.876213 126.866671 24.999998 126.602956 24.999998 L 121.958338 24.999998 C 121.807643 24.999998 121.700004 24.956942 121.635421 24.876213 C 121.570838 24.790102 121.554692 24.666317 121.592365 24.515623 L 126.629865 5.54965 C 126.683685 5.307463 126.834379 5.183678 127.081949 5.183678 L 132.684553 5.183678 C 132.932122 5.183678 133.088199 5.307463 133.142018 5.54965 L 138.152609 24.515623 C 138.168754 24.558678 138.179518 24.607116 138.179518 24.660935 C 138.179518 24.886977 138.050352 24.999998 137.786636 24.999998 Z M 128.443581 18.094963 C 128.443581 18.186456 128.4974 18.234893 128.615803 18.234893 L 131.021532 18.234893 C 131.150699 18.234893 131.204518 18.164928 131.182991 18.035761 L 129.912852 12.142532 C 129.896706 12.072567 129.85365 12.034893 129.794449 12.034893 C 129.740629 12.034893 129.702956 12.072567 129.68681 12.142532 L 128.443581 18.035761 Z M 146.489241 25.285241 C 145.079171 25.285241 143.83056 24.999998 142.754171 24.434893 C 141.677782 23.864407 140.848963 23.06788 140.262331 22.039928 C 139.681081 21.011977 139.385074 19.822567 139.385074 18.460935 L 139.385074 11.722741 C 139.385074 10.361109 139.681081 9.177081 140.262331 8.154511 C 140.848963 7.137324 141.677782 6.35156 142.754171 5.791838 C 143.83056 5.237497 145.079171 4.957636 146.489241 4.957636 C 147.910074 4.957636 149.164067 5.237497 150.245838 5.791838 C 151.332991 6.35156 152.167192 7.137324 152.753824 8.154511 C 153.340456 9.177081 153.631081 10.361109 153.631081 11.722741 L 153.631081 18.460935 C 153.631081 19.822567 153.335074 21.011977 152.737678 22.039928 C 152.145664 23.06788 151.311463 23.864407 150.229692 24.434893 C 149.158685 24.999998 147.910074 25.285241 146.489241 25.285241 Z M 146.489241 20.726734 C 147.038199 20.726734 147.479518 20.538366 147.813199 20.161629 C 148.141498 19.784893 148.308338 19.284373 148.308338 18.654685 L 148.308338 11.577428 C 148.308338 10.953122 148.141498 10.457984 147.813199 10.075866 C 147.479518 9.699129 147.038199 9.510761 146.489241 9.510761 C 145.967192 9.510761 145.536636 9.699129 145.208338 10.075866 C 144.874657 10.457984 144.707817 10.953122 144.707817 11.577428 L 144.707817 18.654685 C 144.707817 19.284373 144.874657 19.784893 145.208338 20.161629 C 145.536636 20.538366 145.967192 20.726734 146.489241 20.726734 Z M 162.059206 25.226039 C 160.659901 25.226039 159.432817 24.95156 158.372574 24.407984 C 157.317713 23.859025 156.499657 23.084025 155.913025 22.082984 C 155.326394 21.081942 155.035769 19.924824 155.035769 18.600866 L 155.035769 11.550518 C 155.035769 10.231942 155.326394 9.080206 155.913025 8.089928 C 156.499657 7.094268 157.317713 6.32465 158.372574 5.781074 C 159.432817 5.232115 160.659901 4.957636 162.059206 4.957636 C 163.436984 4.957636 164.653303 5.226734 165.708164 5.764928 C 166.768408 6.303122 167.586463 7.045831 168.173095 7.993053 C 168.759727 8.929511 169.050352 9.995136 169.050352 11.184546 L 169.050352 11.668921 C 169.050352 11.798088 169.012678 11.900345 168.931949 11.981074 C 168.861984 12.051039 168.754345 12.088713 168.625178 12.088713 L 164.152782 12.088713 C 164.023616 12.088713 163.915977 12.051039 163.84063 11.981074 C 163.765282 11.900345 163.727609 11.798088 163.727609 11.668921 L 163.727609 11.238366 C 163.727609 10.748609 163.576914 10.339581 163.275526 10.011282 C 162.974137 9.677602 162.570491 9.510761 162.059206 9.510761 C 161.547921 9.510761 161.138894 9.688366 160.826741 10.048956 C 160.514588 10.409546 160.358512 10.883157 160.358512 11.464407 L 160.358512 18.692359 C 160.358512 19.273609 160.530734 19.752602 160.88056 20.118574 C 161.230387 20.484546 161.660942 20.667532 162.172227 20.667532 C 162.645838 20.667532 163.027956 20.516838 163.329345 20.215449 C 163.630734 19.91406 163.78681 19.49965 163.78681 18.97222 L 163.78681 18.121873 C 163.78681 18.008852 163.727609 17.94965 163.614588 17.94965 L 162.285248 17.94965 C 162.150699 17.94965 162.048442 17.911977 161.973095 17.842011 C 161.897748 17.761282 161.865456 17.659025 161.865456 17.529859 L 161.865456 14.182289 C 161.865456 14.053123 161.897748 13.950866 161.973095 13.8809 C 162.048442 13.800171 162.150699 13.762497 162.285248 13.762497 L 168.625178 13.762497 C 168.754345 13.762497 168.861984 13.800171 168.931949 13.8809 C 169.012678 13.950866 169.050352 14.053123 169.050352 14.182289 L 169.050352 18.746178 C 169.050352 20.027081 168.759727 21.157289 168.173095 22.136803 C 167.586463 23.121699 166.768408 23.880553 165.708164 24.418748 C 164.653303 24.956942 163.436984 25.226039 162.059206 25.226039 Z M 171.111637 24.999998 C 170.977088 24.999998 170.874831 24.962324 170.794102 24.886977 C 170.724137 24.81163 170.686463 24.709373 170.686463 24.580206 L 170.686463 5.60347 C 170.686463 5.474303 170.724137 5.377428 170.794102 5.302081 C 170.874831 5.221352 170.977088 5.183678 171.111637 5.183678 L 175.584033 5.183678 C 175.713199 5.183678 175.815456 5.221352 175.890803 5.302081 C 175.966151 5.377428 176.009206 5.474303 176.009206 5.60347 L 176.009206 20.27465 C 176.009206 20.387671 176.063026 20.446873 176.181428 20.446873 L 183.285595 20.446873 C 183.420144 20.446873 183.522401 20.484546 183.597748 20.554511 C 183.667713 20.629859 183.705387 20.732116 183.705387 20.866664 L 183.705387 24.580206 C 183.705387 24.709373 183.667713 24.81163 183.597748 24.886977 C 183.522401 24.962324 183.420144 24.999998 183.285595 24.999998 Z M 191.966672 25.226039 C 190.588894 25.226039 189.377956 24.95156 188.328477 24.407984 C 187.28438 23.859025 186.471706 23.084025 185.895838 22.082984 C 185.31997 21.081942 185.034727 19.924824 185.034727 18.600866 L 185.034727 5.60347 C 185.034727 5.474303 185.072401 5.377428 185.142366 5.302081 C 185.223095 5.221352 185.325352 5.183678 185.454519 5.183678 L 189.926915 5.183678 C 190.061463 5.183678 190.16372 5.221352 190.239067 5.302081 C 190.314415 5.377428 190.35747 5.474303 190.35747 5.60347 L 190.35747 18.853817 C 190.35747 19.402775 190.502783 19.844095 190.788026 20.177775 C 191.084033 20.500692 191.476915 20.667532 191.966672 20.667532 C 192.440283 20.667532 192.827783 20.500692 193.129172 20.177775 C 193.430561 19.844095 193.581255 19.402775 193.581255 18.853817 L 193.581255 5.60347 C 193.581255 5.474303 193.618929 5.377428 193.694276 5.302081 C 193.769623 5.221352 193.877262 5.183678 194.006429 5.183678 L 198.478824 5.183678 C 198.607991 5.183678 198.71563 5.221352 198.785595 5.302081 C 198.866324 5.377428 198.903998 5.474303 198.903998 5.60347 L 198.903998 18.600866 C 198.903998 19.924824 198.618755 21.081942 198.042887 22.082984 C 197.467019 23.084025 196.654345 23.859025 195.599484 24.407984 C 194.555387 24.95156 193.344449 25.226039 191.966672 25.226039 Z M 191.966672 25.226039 " stroke="rgb(100%, 61.959839%, 36.859131%)" stroke-width="0.672389" stroke-opacity="1" stroke-miterlimit="4"/></g></svg>